<svg version="1.1" id="Layer_1" xmlns="http://www.w3.org/2000/svg" xmlns:xlink="http://www.w3.org/1999/xlink" x="0px" y="0px"
	 width="100%" viewBox="0 0 1024 1024" enable-background="new 0 0 1024 1024" xml:space="preserve">
<path fill="#FFBA1D" opacity="1.000000" stroke="none" 
	d="
M30.955431,839.044983 
	C26.800579,832.150635 27.811573,825.414368 31.685110,818.837402 
	C46.629951,793.462280 60.725140,767.534302 76.733757,742.847778 
	C131.604935,658.232056 203.761780,590.743347 286.719147,534.359741 
	C338.416229,499.222839 392.319580,467.792938 448.665924,440.642181 
	C451.956055,439.056763 455.419708,437.828796 458.816986,436.470459 
	C459.579132,436.165710 460.401703,436.012115 462.029205,435.555115 
	C488.646484,535.528625 515.232178,635.383484 541.474426,735.662720 
	C536.875061,738.336792 532.688293,740.730896 528.351501,742.812134 
	C506.615601,753.243042 485.158569,764.338623 462.999176,773.782471 
	C434.770782,785.812683 406.345612,797.618103 377.294952,807.413879 
	C349.559235,816.766235 321.035614,823.901306 292.633209,831.125854 
	C259.734161,839.494263 226.110413,843.993469 192.327164,846.849548 
	C175.153137,848.301453 157.863052,848.539856 140.616501,848.907593 
	C132.007248,849.091187 123.376099,848.372070 114.758186,847.986694 
	C108.467667,847.705383 102.127182,847.713623 95.905617,846.875427 
	C78.067902,844.472107 60.292023,841.611938 42.461281,839.153015 
	C38.692707,838.633240 34.794113,839.056335 30.955431,839.044983 
z"/>
<path fill="#FEA123" opacity="1.000000" stroke="none" 
	d="
M30.965656,839.432861 
	C34.794113,839.056335 38.692707,838.633240 42.461281,839.153015 
	C60.292023,841.611938 78.067902,844.472107 95.905617,846.875427 
	C102.127182,847.713623 108.467667,847.705383 114.758186,847.986694 
	C123.376099,848.372070 132.007248,849.091187 140.616501,848.907593 
	C157.863052,848.539856 175.153137,848.301453 192.327164,846.849548 
	C226.110413,843.993469 259.734161,839.494263 292.633209,831.125854 
	C321.035614,823.901306 349.559235,816.766235 377.294952,807.413879 
	C406.345612,797.618103 434.770782,785.812683 462.999176,773.782471 
	C485.158569,764.338623 506.615601,753.243042 528.351501,742.812134 
	C532.688293,740.730896 536.875061,738.336792 541.477905,736.041138 
	C546.466309,752.926941 551.215088,769.830017 555.728577,786.795715 
	C567.914978,832.603027 579.999695,878.437317 592.128296,924.259949 
	C594.968079,934.988708 594.943542,934.928162 585.072388,940.126892 
	C547.495117,959.917053 509.165222,977.904358 468.405640,990.346497 
	C413.904205,1006.983398 358.259186,1017.201904 301.251221,1014.634216 
	C237.077484,1011.743835 175.915955,996.854919 121.329346,960.760376 
	C90.866173,940.617126 66.763298,914.860291 48.924381,882.935425 
	C41.234848,869.174011 35.657909,854.732666 30.965656,839.432861 
z"/>
<path fill="#91C73C" opacity="1.000000" stroke="none" 
	d="
M414.983215,444.966064 
	C366.122711,469.167908 318.452209,494.792786 274.433746,526.481262 
	C230.064484,558.422241 186.646027,591.786499 149.706940,632.372925 
	C119.427338,665.642334 91.301147,700.863953 67.457512,739.109558 
	C52.766541,762.674133 39.933311,787.396851 26.257362,811.594666 
	C25.472717,812.982971 24.610319,814.327393 22.672552,815.565735 
	C21.454128,804.068237 19.734280,792.598328 19.099592,781.068726 
	C15.306855,712.170532 32.233471,647.861145 62.508175,586.505737 
	C82.109871,546.780334 104.779533,508.743866 133.238937,474.967499 
	C170.780945,430.411682 212.881027,390.420441 262.430817,358.790253 
	C288.702759,342.019470 314.778381,324.965179 343.565643,312.869263 
	C367.605530,302.768097 392.197266,293.981384 416.526978,284.567108 
	C419.654572,283.356873 421.660095,283.410889 422.698425,287.343719 
	C434.663635,332.663574 446.746948,377.952209 458.881104,423.558258 
	C444.274323,430.688934 429.800415,437.754730 414.983215,444.966064 
z"/>
<path fill="#FEA123" opacity="1.000000" stroke="none" 
	d="
M757.896240,560.583862 
	C771.693970,557.051575 785.481201,553.477661 799.292236,549.998291 
	C814.568665,546.149780 829.865295,542.381470 845.158386,538.599731 
	C846.413513,538.289307 847.709412,538.143616 849.736633,537.790894 
	C850.437378,548.068726 851.454102,557.948425 851.730469,567.848816 
	C853.547668,632.947510 836.161560,692.772888 802.291321,748.157776 
	C762.089539,813.895996 707.128235,864.709290 643.118042,906.439270 
	C632.140198,913.596008 620.880310,920.320190 609.167786,927.606812 
	C604.991028,912.177856 601.000671,897.639221 597.121399,883.071045 
	C583.429199,831.651917 569.774780,780.222778 556.113953,728.795349 
	C556.029968,728.479065 556.056946,728.133240 556.418701,727.362061 
	C561.729980,724.190552 566.831360,721.731079 571.549194,718.678772 
	C593.114319,704.726257 615.004700,691.217346 635.935730,676.362000 
	C653.722046,663.738525 670.616150,649.804749 687.407471,635.851990 
	C697.982056,627.065002 707.872986,617.409485 717.636475,607.706726 
	C725.627319,599.765503 733.206665,591.375732 740.538391,582.816467 
	C746.648499,575.683289 752.134094,568.015076 757.896240,560.583862 
z"/>
<path fill="#FFBA1E" opacity="1.000000" stroke="none" 
	d="
M483.977966,454.035950 
	C497.933838,460.162537 511.669128,466.866913 525.891113,472.296417 
	C556.236145,483.881165 609.279663,476.377533 638.429749,441.758789 
	C651.437195,426.311157 659.703003,408.991150 664.105652,389.542633 
	C665.968018,381.315247 666.423401,380.861359 674.299622,382.059753 
	C695.659851,385.309845 717.085144,388.226990 738.326904,392.134033 
	C760.325500,396.180267 781.556824,402.902802 801.137634,414.081451 
	C807.431458,417.674591 813.184814,421.864990 816.030212,429.777832 
	C815.642517,436.725128 816.326660,443.164459 814.632507,448.901550 
	C809.946777,464.769012 805.347595,480.820862 798.676453,495.898132 
	C792.127686,510.698761 783.074219,524.391174 775.119995,538.569885 
	C710.761719,554.497620 646.406555,570.437927 582.042847,586.343750 
	C567.042542,590.050598 552.066345,593.881775 536.977844,597.195129 
	C527.639282,599.245850 520.564270,594.464172 518.136902,585.339294 
	C506.904144,543.112366 495.690887,500.880341 484.487061,458.645752 
	C484.147644,457.366333 483.989441,456.038879 483.881073,454.360291 
	C484.015350,453.986786 483.977966,454.035950 483.977966,454.035950 
z"/>
<path fill="#92C73D" opacity="1.000000" stroke="none" 
	d="
M656.161499,367.104095 
	C655.725037,417.379303 618.110962,456.177094 568.470093,462.700195 
	C535.786133,466.995026 506.496948,458.079987 481.001648,437.126434 
	C479.327576,435.750549 477.840057,433.573334 477.283478,431.496185 
	C463.815094,381.231842 450.485016,330.930450 437.140808,280.632812 
	C437.059174,280.325043 437.130707,279.976654 437.130707,278.778931 
	C444.760803,276.995392 452.578064,275.021393 460.459839,273.352325 
	C488.044342,267.511017 515.868164,263.383240 544.138611,264.302032 
	C555.225220,264.662323 566.259338,266.634766 577.956543,268.226929 
	C596.462280,273.290009 612.170654,282.039551 625.241272,294.989441 
	C645.204224,314.768097 655.561279,338.903961 656.161499,367.104095 
M594.854309,293.616180 
	C589.049683,290.413025 583.524231,286.476349 577.389038,284.141907 
	C557.684875,276.644501 537.380493,276.331482 516.924805,280.704651 
	C499.839844,284.357239 484.113525,290.872009 471.964844,303.945282 
	C458.029388,318.941254 458.862579,337.166595 473.934265,350.047485 
	C477.194611,352.833923 480.866638,355.306610 484.697449,357.229767 
	C506.324982,368.087158 529.129883,369.063934 552.393494,364.427307 
	C568.983521,361.120819 584.333862,354.888916 596.559265,342.709290 
	C612.389771,326.938080 611.867126,309.150513 594.854309,293.616180 
z"/>
<path fill="#76B04D" opacity="1.000000" stroke="none" 
	d="
M927.233215,422.824219 
	C927.463257,421.026428 927.693298,419.228638 927.849548,418.007599 
	C919.780334,414.955994 911.562622,412.970154 904.465210,408.987671 
	C844.501892,375.340851 801.168152,327.442657 779.480896,261.325439 
	C778.725525,259.022491 778.362976,256.590729 777.549927,253.057022 
	C781.365479,255.014908 784.113159,256.426422 786.862183,257.835266 
	C822.090698,275.889221 859.125854,289.239899 897.174988,299.855621 
	C901.505554,301.063904 903.345703,303.133850 904.371399,307.295074 
	C911.610352,336.663055 919.089966,365.971649 926.387146,395.325439 
	C927.337769,399.149567 927.684692,403.123779 928.555115,406.998230 
	C930.047791,389.187103 928.191101,371.609161 924.608032,354.218323 
	C920.313171,333.372772 915.574219,312.618896 911.223816,291.784332 
	C910.843140,289.961090 911.286499,287.327026 912.411987,285.923279 
	C930.790894,263.000305 947.573792,239.040726 960.871521,212.760345 
	C961.089417,212.329788 961.321655,211.906586 961.769409,211.060089 
	C967.960754,217.403183 971.171204,224.621292 971.846680,232.386261 
	C973.200867,247.952881 974.305481,263.603241 974.269531,279.216156 
	C974.188660,314.357971 965.612793,347.663849 951.339722,379.705200 
	C945.254456,393.365967 940.343445,407.549774 934.362122,422.007385 
	C931.628052,422.620667 929.430664,422.722443 927.233215,422.824219 
z"/>
<path fill="#FFBA1E" opacity="1.000000" stroke="none" 
	d="
M757.484558,560.639160 
	C752.134094,568.015076 746.648499,575.683289 740.538391,582.816467 
	C733.206665,591.375732 725.627319,599.765503 717.636475,607.706726 
	C707.872986,617.409485 697.982056,627.065002 687.407471,635.851990 
	C670.616150,649.804749 653.722046,663.738525 635.935730,676.362000 
	C615.004700,691.217346 593.114319,704.726257 571.549194,718.678772 
	C566.831360,721.731079 561.729980,724.190552 556.456116,726.964355 
	C550.089661,704.719604 544.061340,682.436462 538.060425,660.145935 
	C535.685242,651.323425 533.365417,642.485901 531.029968,633.652710 
	C528.431946,623.825989 532.267151,616.621826 542.328064,613.874329 
	C556.423645,610.025024 570.653198,606.663269 584.839050,603.147705 
	C641.104004,589.204346 697.373962,575.281250 753.644409,561.359924 
	C754.773010,561.080750 755.929443,560.913818 757.484558,560.639160 
z"/>
<path fill="#76B04D" opacity="1.000000" stroke="none" 
	d="
M773.619324,182.558029 
	C774.574768,165.903183 777.577271,150.130463 782.633240,134.697617 
	C783.946899,130.687943 786.025146,129.933655 789.137695,131.849167 
	C794.344727,135.053696 800.229858,137.815399 804.219482,142.221375 
	C819.171814,158.733841 836.402466,172.524445 853.832092,186.192047 
	C864.582642,194.622238 871.522095,205.588043 875.332275,218.965363 
	C881.521301,240.694839 888.645447,262.157928 895.365540,283.736359 
	C895.857422,285.315918 896.274719,286.918762 897.058899,289.680389 
	C891.854126,288.435638 887.179749,287.726562 882.788757,286.201447 
	C853.448975,276.010895 824.167786,265.651154 794.873535,255.329620 
	C792.366577,254.446335 789.912354,253.414307 787.416260,252.498886 
	C780.519775,249.969574 776.018494,245.026550 775.613403,237.810333 
	C774.589233,219.564774 774.196777,201.283752 773.619324,182.558029 
z"/>
<path fill="#76B14D" opacity="1.000000" stroke="none" 
	d="
M861.348022,15.194300 
	C865.070007,11.212296 867.640869,12.945401 869.205200,16.579048 
	C873.538635,26.644772 878.218384,36.625584 881.624023,47.012825 
	C888.192810,67.047707 896.850525,86.072823 907.814026,103.997086 
	C911.365417,109.803230 911.847229,115.386215 909.163452,120.968636 
	C906.460938,126.590065 903.124023,132.099396 899.114380,136.856567 
	C892.261841,144.986862 884.798157,152.622070 877.289001,160.164352 
	C875.489807,161.971466 871.692810,164.156433 870.246887,163.406464 
	C867.943115,162.211517 865.726868,158.831116 865.410828,156.146835 
	C863.310730,138.310303 861.247681,120.442848 860.133301,102.525711 
	C859.319092,89.434448 859.973938,76.251823 859.441833,63.111839 
	C855.131409,70.429657 853.248169,92.535660 855.095032,122.288101 
	C856.324646,142.096649 858.991943,161.815979 861.173279,183.112823 
	C851.194153,175.126083 842.068787,168.240707 833.417358,160.803909 
	C819.275513,148.647354 805.537476,136.021164 791.405273,123.852982 
	C788.262939,121.147362 788.149963,118.811821 789.423828,115.272026 
	C800.487061,84.528831 817.924072,57.837784 840.685547,34.572639 
	C847.197327,27.916700 854.256042,21.795757 861.348022,15.194300 
z"/>
<path fill="#FFCE3E" opacity="1.000000" stroke="none" 
	d="
M656.585266,367.101196 
	C655.561279,338.903961 645.204224,314.768097 625.241272,294.989441 
	C612.170654,282.039551 596.462280,273.290009 578.354614,268.323761 
	C589.968628,270.491028 601.906494,272.571594 613.664124,275.400879 
	C658.534668,286.198181 699.830750,305.263855 736.980591,332.389526 
	C760.510681,349.570465 782.052856,369.360535 798.455505,393.958893 
	C800.059814,396.364685 801.569397,398.833588 803.731995,402.229706 
	C794.496643,397.790314 786.628052,393.570831 778.427063,390.147736 
	C753.855652,379.891479 728.081848,374.144104 701.730957,371.057953 
	C686.872864,369.317841 671.919495,368.391327 656.585266,367.101196 
z"/>
<path fill="#A8CB44" opacity="1.000000" stroke="none" 
	d="
M926.932617,423.033997 
	C929.430664,422.722443 931.628052,422.620667 934.155640,422.336609 
	C939.030945,422.704651 943.568237,423.643524 948.122864,423.737152 
	C966.559692,424.116272 984.411072,427.753113 1002.050598,432.794128 
	C1008.474792,434.630005 1011.848816,438.907379 1010.504211,445.250519 
	C1007.650940,458.710602 1004.307373,472.066681 1001.030701,486.037445 
	C993.786377,483.870605 987.088135,482.147888 980.582581,479.874054 
	C947.450073,468.293640 913.234802,464.804413 878.385254,465.887787 
	C868.086182,466.207947 857.734741,466.095428 847.516846,467.197540 
	C843.052673,467.679108 838.864197,470.716461 834.007141,472.588562 
	C831.015015,464.683594 828.566223,456.783203 826.117432,448.882812 
	C828.490845,448.381897 831.105408,448.360565 833.200806,447.306793 
	C857.688416,434.992096 883.877380,428.658356 910.824646,424.955200 
	C916.073120,424.233948 921.361877,423.806641 926.932617,423.033997 
z"/>
<path fill="#76B04D" opacity="1.000000" stroke="none" 
	d="
M878.384583,173.567444 
	C880.569763,171.035629 882.603821,168.863220 884.528870,166.598282 
	C889.902710,160.275726 895.148743,153.842651 900.603149,147.590927 
	C905.285889,142.223572 910.135986,136.998901 915.009460,131.802490 
	C917.955139,128.661636 921.239014,129.133316 924.271851,131.647110 
	C926.429016,133.434937 928.911804,135.218781 930.223145,137.575409 
	C939.178467,153.668854 947.921509,169.881775 956.602173,186.126053 
	C959.786743,192.085220 959.947632,198.296021 956.476379,204.215042 
	C950.436462,214.513809 944.547241,224.926575 937.965942,234.875549 
	C930.356018,246.379501 922.035583,257.412140 914.086548,268.693787 
	C910.733765,273.452301 904.794922,273.649048 901.910767,268.553070 
	C899.813171,264.846893 898.523499,260.645966 897.154419,256.571289 
	C890.760376,237.541946 884.689941,218.400314 878.031616,199.464874 
	C874.961792,190.734634 873.931519,182.391037 878.384583,173.567444 
z"/>
<path fill="#FEA224" opacity="1.000000" stroke="none" 
	d="
M825.941467,448.577515 
	C828.566223,456.783203 831.015015,464.683594 833.746704,472.813049 
	C837.537109,486.679352 841.052795,500.314453 844.543152,513.956055 
	C845.077087,516.042908 845.494263,518.159546 846.172668,521.186829 
	C822.721436,526.953003 799.339294,532.702209 775.538574,538.510620 
	C783.074219,524.391174 792.127686,510.698761 798.676453,495.898132 
	C805.347595,480.820862 809.946777,464.769012 814.632507,448.901550 
	C816.326660,443.164459 815.642517,436.725128 816.076782,430.114258 
	C819.328430,435.838928 822.546997,442.055542 825.941467,448.577515 
z"/>
<path fill="#FFBA1E" opacity="1.000000" stroke="none" 
	d="
M484.035370,453.963257 
	C483.880951,453.824371 483.706512,453.709045 483.532074,453.593689 
	C483.643463,453.627899 483.754852,453.662109 483.922119,453.866119 
	C483.977966,454.035950 484.015350,453.986786 484.035370,453.963257 
z"/>
<path fill="#FCFDF9" opacity="1.000000" stroke="none" 
	d="
M595.130493,293.843079 
	C611.867126,309.150513 612.389771,326.938080 596.559265,342.709290 
	C584.333862,354.888916 568.983521,361.120819 552.393494,364.427307 
	C529.129883,369.063934 506.324982,368.087158 484.697449,357.229767 
	C480.866638,355.306610 477.194611,352.833923 473.934265,350.047485 
	C458.862579,337.166595 458.029388,318.941254 471.964844,303.945282 
	C484.113525,290.872009 499.839844,284.357239 516.924805,280.704651 
	C537.380493,276.331482 557.684875,276.644501 577.389038,284.141907 
	C583.524231,286.476349 589.049683,290.413025 595.130493,293.843079 
M495.959198,352.667053 
	C514.845398,359.525574 534.068359,359.713470 553.456787,355.361511 
	C565.623352,352.630585 576.868530,347.817291 586.520203,339.703705 
	C602.394836,326.358948 601.842468,308.656250 585.110779,296.528381 
	C583.102112,295.072388 580.926270,293.771301 578.670715,292.743164 
	C553.969116,281.483551 528.901428,282.487244 503.818939,291.102295 
	C492.982666,294.824158 483.257172,300.598602 476.255188,310.068787 
	C468.996643,319.885986 468.683105,330.924011 477.053925,339.692169 
	C482.052185,344.927612 489.122559,348.184845 495.959198,352.667053 
z"/>
<path fill="#A5D357" opacity="1.000000" stroke="none" 
	d="
M495.610352,352.499207 
	C489.122559,348.184845 482.052185,344.927612 477.053925,339.692169 
	C468.683105,330.924011 468.996643,319.885986 476.255188,310.068787 
	C483.257172,300.598602 492.982666,294.824158 503.818939,291.102295 
	C528.901428,282.487244 553.969116,281.483551 578.670715,292.743164 
	C580.926270,293.771301 583.102112,295.072388 585.110779,296.528381 
	C601.842468,308.656250 602.394836,326.358948 586.520203,339.703705 
	C576.868530,347.817291 565.623352,352.630585 553.456787,355.361511 
	C534.068359,359.713470 514.845398,359.525574 495.610352,352.499207 
z"/>
</svg>